<svg width="3177" height="1013" viewBox="0 0 3177 1013" fill="none" xmlns="http://www.w3.org/2000/svg">
<path d="M1593.26 283.602V992.642H1409.44V913.266C1366.71 977.086 1292.56 1012.51 1197.09 1012.51C1046.06 1012.51 927.739 907.602 927.739 718.934V283.602H1111.55V696.278C1111.55 792.726 1169.99 842.346 1252.64 842.346C1342.43 842.346 1409.36 789.854 1409.36 666.522V283.602H1593.18H1593.26Z" fill="#303C30"></path>
<path d="M1724.38 638.114C1724.38 426.791 1883.99 263.73 2100.59 263.73C2240.23 263.73 2361.36 337.443 2419.8 446.655L2261.64 538.795C2233.18 480.639 2171.85 443.783 2099.22 443.783C1989.48 443.783 1908.27 524.595 1908.27 638.035C1908.27 751.475 1989.48 830.851 2099.22 830.851C2173.3 830.851 2234.62 795.431 2263.08 737.275L2422.68 828.059C2361.44 938.627 2240.31 1012.42 2100.67 1012.42C1884.07 1012.42 1724.46 849.359 1724.46 638.035" fill="#303C30"></path>
<path d="M2962.78 992.64L2703.45 670.748V992.64H2519.55V0H2703.45V595.6L2948.51 283.6H3168L2881.49 633.892L3176.49 992.64H2962.78Z" fill="#303C30"></path>
<path d="M196.641 0H0V992.64H196.641V488.143L567.158 740.631V992.64H762.356V638.758L196.641 253.206V0Z" fill="#303C30"></path>
<path d="M567.167 0V270.756L762.366 403.741V0H567.167Z" fill="#303C30"></path>
</svg>